<svg xmlns="http://www.w3.org/2000/svg" width="1000" height="150" viewBox="0 0 1000 150" fill="none" role="img" aria-label="Genji dragon-green palette">
  <defs>
    <filter id="pscales" x="-5%" y="-5%" width="110%" height="110%">
      <feTurbulence type="fractalNoise" baseFrequency="0.7" numOctaves="2" seed="4" result="n"/>
      <feColorMatrix in="n" type="matrix" values="0 0 0 0 1  0 0 0 0 1  0 0 0 0 1  0 0 0 0.06 0"/>
    </filter>
    <linearGradient id="shine" x1="0" y1="0" x2="1" y2="0">
      <stop offset="0%" stop-color="#fff" stop-opacity="0"/>
      <stop offset="50%" stop-color="#fff" stop-opacity="0.9"/>
      <stop offset="100%" stop-color="#fff" stop-opacity="0"/>
    </linearGradient>
  </defs>

  <g font-family="'Segoe UI',Helvetica,Arial,sans-serif">
    <!-- chip template repeated -->
    <g transform="translate(20 20)">
      <rect width="150" height="90" rx="16" fill="#7dffce"/>
      <rect width="150" height="90" rx="16" filter="url(#pscales)"/>
      <text x="12" y="112" font-size="13" font-weight="700" fill="#7dffce">Dragon Mint</text>
      <text x="12" y="128" font-size="11" fill="#5a6b86">#7DFFCE</text>
    </g>
    <g transform="translate(185 20)">
      <rect width="150" height="90" rx="16" fill="#2ee6a6"/>
      <rect width="150" height="90" rx="16" filter="url(#pscales)"/>
      <text x="12" y="112" font-size="13" font-weight="700" fill="#2ee6a6">Cyber Green</text>
      <text x="12" y="128" font-size="11" fill="#5a6b86">#2EE6A6</text>
    </g>
    <g transform="translate(350 20)">
      <rect width="150" height="90" rx="16" fill="#22d3ee"/>
      <rect width="150" height="90" rx="16" filter="url(#pscales)"/>
      <text x="12" y="112" font-size="13" font-weight="700" fill="#22d3ee">Coolant Cyan</text>
      <text x="12" y="128" font-size="11" fill="#5a6b86">#22D3EE · water</text>
    </g>
    <g transform="translate(515 20)">
      <rect width="150" height="90" rx="16" fill="#fbbf24"/>
      <rect width="150" height="90" rx="16" filter="url(#pscales)"/>
      <text x="12" y="112" font-size="13" font-weight="700" fill="#fbbf24">Reactor Amber</text>
      <text x="12" y="128" font-size="11" fill="#5a6b86">#FBBF24 · energy</text>
    </g>
    <g transform="translate(680 20)">
      <rect width="150" height="90" rx="16" fill="#a78bfa"/>
      <rect width="150" height="90" rx="16" filter="url(#pscales)"/>
      <text x="12" y="112" font-size="13" font-weight="700" fill="#a78bfa">Smog Violet</text>
      <text x="12" y="128" font-size="11" fill="#5a6b86">#A78BFA · carbon</text>
    </g>
    <g transform="translate(845 20)">
      <rect width="135" height="90" rx="16" fill="#05070d" stroke="#2ee6a6" stroke-opacity="0.4"/>
      <text x="12" y="112" font-size="13" font-weight="700" fill="#93a4c3">Carbon Ink</text>
      <text x="12" y="128" font-size="11" fill="#5a6b86">#05070D</text>
    </g>

    <!-- sweeping shine across all chips -->
    <rect x="0" y="20" width="120" height="90" rx="16" fill="url(#shine)" opacity="0.5">
      <animate attributeName="x" values="-140;1000" dur="3.8s" repeatCount="indefinite"/>
    </rect>
  </g>
</svg>
